<svg xmlns="http://www.w3.org/2000/svg" viewBox="0 0 566.93 168.27"><defs><style>.cls-1{fill:#282626;}</style></defs><g id="Layer_2" data-name="Layer 2"><g id="Layer_1-2" data-name="Layer 1"><path class="cls-1" d="M85.23,66.59v-3h8.36c.75,0,1.06-.15,1.06-.6V19.06C94.65,8.43,88,3.57,83,3.57c-12.3,0-17.31,9.87-17.31,17.77V63c0,.45.15.6.91.6h8.36c.3,0,.3,3,0,3H43c-.45,0-.45-3,0-3h8.36c.45,0,.76-.15.76-.6V19.06c0-10.63-6.38-15.49-11.7-15.49-9.11,0-14,4.55-17.31,15V63c0,.45.3.6.91.6h8.35c.46,0,.46,3,0,3H.34c-.45,0-.45-3,0-3H8.85c.76,0,1.06-.15,1.06-.6V5.54c0-.45-.3-.6-1.06-.6H.34c-.45,0-.45-3,0-3H22.67a.4.4,0,0,1,.45.45v10C25.85,3.87,33.45.53,40.43.53c13.82,0,21.42,4.86,24.3,12.15A19.07,19.07,0,0,1,83,.53C98.44.53,108,6.61,108,22.7V63c0,.45.31.6.91.6h8.66a10.32,10.32,0,0,1,0,3Z"/><path class="cls-1" d="M172.4,68c-6.68,0-11.09-5.47-12.15-11.7a18.24,18.24,0,0,1-17,11.7C133.07,68,122.59,64,122.59,52c0-15.94,13.82-18.68,19.89-19.28,8.2-.76,17.16-1.37,17.16-4.56V16.63c0-12.15-6.94-14.69-11.23-14.69-8.36,0-11.58,4.83-11.75,4.59s-5.2,1.59-5,1.38A21.32,21.32,0,0,1,148.41.53C164.2.53,173,9,173,28V58.24c0,3.8,1.52,5.31,3.34,5.31a4.82,4.82,0,0,0,4.71-3.19c.15-.3,2,1.37,1.82,1.68C182,64.77,178.17,68,172.4,68ZM159.64,32.57c-3.34,2.28-9.87,2.28-14.27,3-5.16,1.06-9.72,2.43-9.72,16.4,0,7.9,3.34,12.3,10.18,12.3,8.65,0,13.81-9,13.81-16.4Z"/><path class="cls-1" d="M219.17,68c-17.61,0-32-15.19-32-33.72S201.56.53,219.17.53c7.54,0,16.16,2.21,21,7.4a23.27,23.27,0,0,1-4-.79c-6.64-4.25-11.15-4.88-17-4.68a18.38,18.38,0,0,0-11.08,4.3c-4.86,4.1-7.14,10.63-7.14,27.48s2.28,23.24,7.14,27.34c2.73,2.58,7,3.34,11.08,3.34,10.78,0,18.83-5.31,24-13.06.15-.15,1.67,1.37,1.21,1.67C238.76,62.19,229.8,68,219.17,68Z"/><path class="cls-1" d="M349.76,2.2c-7.8-.35-15.63,7.91-15.63,25.33V63c0,.45.45.6,1.06.6h8.35c.31,0,.31,3,0,3h-32c-.3,0-.3-3,0-3h8.35c.76,0,1.07-.15,1.07-.6V5.54c0-.6-.31-.6-1.07-.6H311.5c-.3,0-.3-3,0-3h22.32c.31,0,.31.15.31.45v7.76A16.41,16.41,0,0,1,350.23.53c3.42.37,7.29,1.84,10.95,8a11.29,11.29,0,0,1-3.5-.63C356.66,5.62,354.66,2.42,349.76,2.2Z"/><path class="cls-1" d="M399.13,68c-17.32,0-31.74-15.19-31.74-33.72S381.81.53,399.13.53c17.76,0,32,15.19,32,33.71S416.89,68,399.13,68Zm11.08-61.2c-2.73-2.43-6.38-3.19-11.08-3.19-4.26,0-8.05.76-10.94,3.19-4.86,4.1-7.14,12.75-7.14,27.48,0,16.86,2.28,23.24,7.14,27.34,2.89,2.58,6.68,3.34,10.94,3.34,4.7,0,8.35-.76,11.08-3.34,5-4.1,7.29-10.48,7.29-27.34C417.5,19.51,415.22,10.86,410.21,6.76Z"/><path class="cls-1" d="M482.5,66.59c-.46,0-.46-3,0-3h8.35c.45,0,.76-.15.76-.6V19.06c0-10.63-6.38-15.49-11.7-15.49-9.11,0-14,4.55-17.46,15V63c0,.45.46.6,1.06.6h8.36c.3,0,.3,3,0,3H439.82c-.3,0-.3-3,0-3h8.36c.6,0,1.21-.15,1.21-.6V5.54c0-.45-.61-.6-1.21-.6h-8.36c-.3,0-.3-3,0-3H462c.46,0,.46.15.46.45v10C465.34,3.87,472.93.53,479.91.53c15.65,0,25.21,9.27,25.21,25.36V63c0,.45.15.6.91.6h8.36c.3,0,.3,3,0,3Z"/><path class="cls-1" d="M545.21,68c-8.81,0-11.54-4.1-15.49-4.1a6.22,6.22,0,0,0-5.31,2.88c0,.46-2.74.31-2.74,0l.76-23.69c0-.3,2.74-.3,2.74,0-.31,11.85,8.81,21.87,20,21.87,8.51,0,14.43-4.1,14.43-13.06,0-8.2-6.53-9.87-17.62-13.36-10.63-3.19-17.76-8.2-17.76-18.07C524.26,8,532.91.53,542.48.53,549.62.53,548.86,3,554.93,3c2,0,3-2.12,3.19-2.73,0-.31,2.89-.31,2.89,0V19.51c0,.31-2.89.31-2.89,0,0-8.65-8.5-15.94-15.64-15.94-7.59,0-11.85,4.55-11.85,10.48,0,7.59,5.77,9.56,17.16,12.91s19.14,8.35,19.14,19.43C566.93,58.69,559.79,68,545.21,68Z"/><circle class="cls-1" cx="137.75" cy="12.98" r="7.93"/><circle class="cls-1" cx="354.28" cy="12.33" r="7.93"/><circle class="cls-1" cx="234.01" cy="12.98" r="7.93"/><path class="cls-1" d="M299.05,68c-6.68,0-11.09-5.47-12.15-11.7a18.24,18.24,0,0,1-17,11.7C259.72,68,249.24,64,249.24,52c0-15.94,13.82-18.68,19.89-19.28,8.2-.76,17.16-1.37,17.16-4.56V16.63c0-12.15-6.94-14.69-11.23-14.69-8.36,0-11.58,4.83-11.75,4.59s-5.2,1.59-5,1.38A21.3,21.3,0,0,1,275.06.53C290.85.53,299.66,9,299.66,28V58.24c0,3.8,1.52,5.31,3.34,5.31a4.82,4.82,0,0,0,4.71-3.19c.15-.3,2,1.37,1.82,1.68C308.62,64.77,304.82,68,299.05,68ZM286.29,32.57c-3.34,2.28-9.87,2.28-14.27,3C266.85,36.67,262.3,38,262.3,52c0,7.9,3.34,12.3,10.17,12.3,8.66,0,13.82-9,13.82-16.4Z"/><circle class="cls-1" cx="264.4" cy="12.98" r="7.93"/><path class="cls-1" d="M112.52,137.34q-1.59-1.58-.79-4.36a25.16,25.16,0,0,1,2.38-5.54l1.19-2-.4-.4h-.2c-.13,0-.2-.13-.2-.4-.66-.66-.53-1.19.4-1.58l3.57-2,.39-1.19q2.39-3.37,4.66-6c1.51-1.79,2.87-3.47,4.06-5.06A79.59,79.59,0,0,1,137,99.4a113.3,113.3,0,0,1,9.11-6.93,78.93,78.93,0,0,1,7.53-4.56,26.66,26.66,0,0,1,4.85-2.08,1.18,1.18,0,0,0,.7-.2,1.64,1.64,0,0,1,.89-.19,1.25,1.25,0,0,1,1.29.69,4.21,4.21,0,0,1,.3,1.68q0,1.59-3.18,5.06a111.06,111.06,0,0,1-8.32,8,109.87,109.87,0,0,1-11.78,9.61q-7,5.06-16.35,11.39l-2,1.19-1.19,2q-5.74,8.72-4.36,10.7c.66.79,2,.82,4.06.1a22.57,22.57,0,0,0,6.64-4.06,2.31,2.31,0,0,1,.79-.8,2.2,2.2,0,0,0,.8-.79L128,129l-1.19-1.19a1.81,1.81,0,0,0-.2-.79,1.78,1.78,0,0,1-.2-.79q-1.78-3.57,0-5.85t4-1.28l1.19.79.4.39a5.57,5.57,0,0,1,0,6.34l-.4,1.59c2.25,1.06,5.51,1.19,9.81.4s9.61-3.3,16-7.53c.79-.8,1.45-.66,2,.39a.83.83,0,0,1,.29.8,1.48,1.48,0,0,1-.69.79q-9.91,6.54-17.14,8.12T130,130.61l-3.17,3.17a39.12,39.12,0,0,1-3.47,2.67,19.23,19.23,0,0,1-4,2.08,8.32,8.32,0,0,1-3.87.6A4.2,4.2,0,0,1,112.52,137.34Zm36.06-38a52.77,52.77,0,0,0,4.75-4.55c1.32-1.45,2.38-2.58,3.17-3.37a6.33,6.33,0,0,1,1.19-1.59l.79-1.18L157.3,89c-1.33.66-3,1.59-5.06,2.78a78.09,78.09,0,0,0-6.73,4.45,98.51,98.51,0,0,0-7.73,6.34A77,77,0,0,0,130,110.8l-2.78,2.77-2.37,3.17.79-.4q7.53-5.15,13-9.31T148.58,99.3Zm-19,22.19c-.4-.26-.79,0-1.19.7a4.59,4.59,0,0,0,0,3.27c.26.26.4.46.4.59s.13.2.39.2h.4l.4-.4C130.35,123.87,130.22,122.42,129.56,121.49Z"/><path class="cls-1" d="M153.43,134a4.86,4.86,0,0,1-2-4.66,10.63,10.63,0,0,1,2.38-5.15,23.58,23.58,0,0,1,4.75-4.46,22,22,0,0,1,4.95-2.77,3.14,3.14,0,0,1,1.29-.2c.6,0,.89.2.89.6a1.29,1.29,0,0,1-.39,1.58q-1.59,1.4-4.06,3.27c-1.66,1.26-3.27,2.41-4.86,3.47q-2.37,3-1.58,5.35c.39,1.19,1.58,1.78,3.56,1.78a14.79,14.79,0,0,0,6.54-1.78,5.6,5.6,0,0,1-1.88-5,13.64,13.64,0,0,1,2-5.74,17.28,17.28,0,0,1,4.26-4.76,7,7,0,0,1,4.75-1.78,4.44,4.44,0,0,1,1,.1,2.55,2.55,0,0,1,1,.69,4.74,4.74,0,0,1,.69,4,17.69,17.69,0,0,1-1.78,4.75,29.66,29.66,0,0,1-2.88,4.36,9.71,9.71,0,0,1-2.38,2.38,12.91,12.91,0,0,0,5.45-.5q3.47-.88,7.13-2.18a73.94,73.94,0,0,0,7-2.87,30.81,30.81,0,0,0,5-2.77c1.06,0,1.59.26,1.59.79a1.29,1.29,0,0,1-.4,1.58,38.17,38.17,0,0,1-5.55,3.07,70.11,70.11,0,0,1-7.63,3.07,51.24,51.24,0,0,1-8.12,2.08,18.14,18.14,0,0,1-6.83.1q-5.16,3.38-8.72,3.17T153.43,134Zm20.21-17.83c-.93-.13-2,.36-3.17,1.48a17.57,17.57,0,0,0-3.07,3.87,13.28,13.28,0,0,0-1.69,4.45,2.9,2.9,0,0,0,1.19,3.27,23.61,23.61,0,0,0,3.17-3.46,30,30,0,0,0,2.68-4.16,13.78,13.78,0,0,0,1.38-3.67C174.33,116.87,174.16,116.27,173.64,116.14Z"/><path class="cls-1" d="M211.5,135.75a4.85,4.85,0,0,1-3.37-2.57,4.62,4.62,0,0,1,0-4.16q-5.74,3.55-9.21,4.26c-2.31.46-4,.16-5-.9a5.46,5.46,0,0,1-1.39-2.77,7.9,7.9,0,0,1,1-4.75l-4.36,2.77c-1.18.4-2,.27-2.37-.4s0-1.19.79-1.58a34.13,34.13,0,0,0,4.46-2.48,22.35,22.35,0,0,0,3.46-2.67l.4-.4c1.05-1.06,2-1.32,2.77-.79s.66,1.32-.39,2.38l-.8.79q-3.36,5.55-1.58,7.92c1.05.79,3,.57,5.75-.69a43.43,43.43,0,0,0,8.12-4.85c1.19-1.19,2-1.79,2.47-1.79a1.23,1.23,0,0,1,1.09.6c.4.66.47,1.09.2,1.28a4.84,4.84,0,0,0-1,1.49c-1.58,2.38-2.25,4.06-2,5.05a2.55,2.55,0,0,0,2.38,1.79,12,12,0,0,0,4.46-.3c1.65-.4,3.07-.79,4.25-1.19a38.57,38.57,0,0,0,4-1.68c1.19-.6,2.41-1.22,3.66-1.89s2.61-1.41,4.06-2.28,3.1-1.88,5-3.07c1.05-.66,1.65-.62,1.78.1a1.7,1.7,0,0,1-.2,1.49,66,66,0,0,1-7.33,4.85,81.14,81.14,0,0,1-7.82,4,36.53,36.53,0,0,1-7.33,2.37A13.35,13.35,0,0,1,211.5,135.75Z"/><path class="cls-1" d="M236.32,103.46a17.77,17.77,0,0,0-1.78.2c-.92.13-1.39-.2-1.39-1a1.41,1.41,0,0,1,1-1.39,2.28,2.28,0,0,1,1-.2q5.15-.58,12.18-.89t14.76-.3c1.19-1,2.87-2.41,5.05-4.06s4.42-3.27,6.74-4.85a67.92,67.92,0,0,1,6.63-4.06,11.81,11.81,0,0,1,5-1.69,1.68,1.68,0,0,1,1.48.7,2.26,2.26,0,0,1,.5,1.28q-.4,2.19-3.37,5.35t-7.73,7.33l15.85,1.19,1.19.4a1.41,1.41,0,0,1,.79,1.58c-.13.4-.72.6-1.78.6a4.48,4.48,0,0,1-1.39-.2q-4.56-.39-8.91-.6t-8.92-.19q-6.74,5.55-13.67,10.6A102.49,102.49,0,0,1,245,122.08a17,17,0,0,0-2.57,4.26,11.2,11.2,0,0,0-1.19,4.26q.19,2.39,3.27,2.87a27.58,27.58,0,0,0,7.72-.1,62.55,62.55,0,0,0,10.21-2.27q5.53-1.68,10.69-3.47a89.33,89.33,0,0,0,9.12-3.67,34.25,34.25,0,0,0,5.54-3.07c1.06-.66,1.85-.66,2.38,0s.26,1.32-.79,2a37.87,37.87,0,0,1-8.52,4.66,139.25,139.25,0,0,1-13.27,4.95,104.69,104.69,0,0,1-14,3.47q-6.84,1.19-10.6,0a6.35,6.35,0,0,1-3.47-1.68,4.69,4.69,0,0,1-1.28-3.47,12.28,12.28,0,0,1,.29-2.58,9.57,9.57,0,0,1,1.29-3l.4-.39-3.57,1.58a.89.89,0,0,1-1,.2c-.4-.13-.59-.33-.59-.6a1.28,1.28,0,0,1,.39-1.58l7.53-4.36a81.65,81.65,0,0,1,6.24-7.63q3.87-4.26,9.61-9.8-6.35,0-12.09.1A96.36,96.36,0,0,0,236.32,103.46ZM248,117.72l12.29-8.42q5.34-3.66,9.31-6.63h-6.74c-1.19,1-2.91,2.64-5.15,4.75S252.24,113,248,117.72ZM283.08,88.8a63.66,63.66,0,0,0-7.23,3.86,98,98,0,0,0-10.2,7.23h7.13c2.24-2,4.46-4,6.63-6.14a43.78,43.78,0,0,0,4.86-5.35Z"/><path class="cls-1" d="M281.22,134a3.76,3.76,0,0,1-.4-3.77,14.67,14.67,0,0,1,2-3.76,12,12,0,0,1-2.77,1.49,8.23,8.23,0,0,0-2,.89,1.16,1.16,0,1,1-1.19-2,27.3,27.3,0,0,0,3.66-1.79c.86-.52,1.62-1,2.28-1.48l2.18-1.49c.79-.52,1.91-1.19,3.37-2a1.28,1.28,0,0,1,1.88.6c.46.79.36,1.38-.3,1.78a14.25,14.25,0,0,0-3.17,3q-1,1.39-2,3c-1,1.72-1.38,2.84-1,3.37a2.57,2.57,0,0,0,2.18.79,14.84,14.84,0,0,0,3.57-.49c1.32-.33,2.38-.63,3.17-.9a67.63,67.63,0,0,0,8.71-3.36q4.75-2.17,9.51-4.56c.4-.4.73-.56,1-.49a3.42,3.42,0,0,1,1,.49c.39.79.13,1.46-.8,2-1.32.79-3.46,2-6.44,3.47a80.79,80.79,0,0,1-9.41,4.06,51.16,51.16,0,0,1-9.31,2.48C284.06,135.72,282.14,135.29,281.22,134Zm9.51-20.21a1,1,0,0,1-.3-1,.63.63,0,0,1,.69-.59l2.48-2.48a13.7,13.7,0,0,0,2.28-3.07c.39-.92.92-1.06,1.58-.4,1.06.53,1.32,1.06.8,1.59a16.81,16.81,0,0,1-5.55,6.34C291.78,114.69,291.12,114.55,290.73,113.76Z"/><path class="cls-1" d="M326.39,116.93a73,73,0,0,0-7.73,4.06,63.33,63.33,0,0,0-6.74,4.66,24.32,24.32,0,0,0-4.55,4.55c-1.06,1.46-1.32,2.71-.8,3.77a3.49,3.49,0,0,1,.8.2c.39.13,1.25-.17,2.57-.89a41.23,41.23,0,0,0,5.75-4.26A136.68,136.68,0,0,0,326,118.91l2.38-2.77c.26-.4.82-.53,1.68-.4s1.09.79.7,2Q323.21,127,318,133.18t-9,10.6q-3.76,4.46-6.34,7.82a83.4,83.4,0,0,0-4.75,6.93A198,198,0,0,1,322,141.4c9.37-5.75,23-14.61,33.2-22l.32,1.09c1.11-.2,3.34-.4-2.62,1.6-.45.15.33.73.2,1a2.27,2.27,0,0,0-.2,1q-9.31,6.74-18.62,12.68T316.88,148q-8.13,5.35-14.27,10.21t-8.71,9.41a1.11,1.11,0,0,1-1.69.39,1.17,1.17,0,0,1-.69-1.58,39,39,0,0,1,4.65-9.91,114.56,114.56,0,0,1,7.24-10.1q4-4.95,7.82-9.31t6.44-7.53a25.37,25.37,0,0,1-8.62,6.34c-2.71,1.06-4.46.79-5.25-.79a6.89,6.89,0,0,1,1.09-5.75,25.53,25.53,0,0,1,5.15-5.74,51.91,51.91,0,0,1,7.53-5.25,78.38,78.38,0,0,1,8.42-4.26c1.06-.4,1.68-.13,1.88.79S327.58,116.53,326.39,116.93Z"/><path class="cls-1" d="M370,135.75a4.85,4.85,0,0,1-3.37-2.57,4.62,4.62,0,0,1,0-4.16q-5.75,3.55-9.21,4.26c-2.31.46-4,.16-5.05-.9a5.46,5.46,0,0,1-1.39-2.77c-.27-1.19.07-2.77,1-4.75l-4.36,2.77c-1.18.4-2,.27-2.37-.4s.24-.85,1-1.25a36.24,36.24,0,0,0,4.21-2.81A22.35,22.35,0,0,0,354,120.5l.4-.4c1-1.06,2-1.32,2.77-.79s.66,1.32-.39,2.38l-.8.79q-3.36,5.55-1.58,7.92c1,.79,3,.57,5.75-.69a43.43,43.43,0,0,0,8.12-4.85c1.19-1.19,2-1.79,2.47-1.79a1.23,1.23,0,0,1,1.09.6c.4.66.47,1.09.2,1.28a4.84,4.84,0,0,0-1,1.49c-1.58,2.38-2.25,4.06-2,5.05a2.55,2.55,0,0,0,2.38,1.79,12,12,0,0,0,4.45-.3c1.65-.4,3.08-.79,4.26-1.19a38.57,38.57,0,0,0,4-1.68c1.19-.6,2.41-1.22,3.66-1.89s2.82-.63,4.27-1.49,3.25-1.8,5.1-3c1.06-.66,1.3-1.49,1.43-.77s1.07,1.5.8,1.77c-3.77,3-13.58,7.41-16.15,8.54a36.41,36.41,0,0,1-7.34,2.37A13.31,13.31,0,0,1,370,135.75Z"/><path class="cls-1" d="M387.48,131.19a6.46,6.46,0,0,1-.59-4.65,11.37,11.37,0,0,1,2.18-4.26,14.79,14.79,0,0,1,3.86-3.37,17.81,17.81,0,0,1,4.46-2,9.35,9.35,0,0,1,2.87-.3,3.56,3.56,0,0,1,2.28,1.09,2.28,2.28,0,0,1,.79,1.59,4,4,0,0,1-1.48,3.27,25.34,25.34,0,0,1-4,3.17,27.24,27.24,0,0,1-4.76,2.47c-1.65.67-2.87,1.13-3.66,1.39a8.7,8.7,0,0,0,5.74,5,32.37,32.37,0,0,0,10.4,1.49,76.17,76.17,0,0,0,13.28-1.29q7.23-1.29,14.36-3.27A122.88,122.88,0,0,0,446.72,127a75.47,75.47,0,0,0,10.9-5.34q1.19-1,2,0c.53.66.4,1.18-.4,1.58a55.72,55.72,0,0,1-9.8,5.35,126.72,126.72,0,0,1-28.73,8.72,91.31,91.31,0,0,1-14.56,1.48,33.79,33.79,0,0,1-11.79-1.68A10.88,10.88,0,0,1,387.48,131.19Zm13.08-11.49c0-.52-.66-.66-2-.39a13.66,13.66,0,0,0-5.55,2.77,9.65,9.65,0,0,0-3.56,5.35l2.18-1.09c1.18-.59,2.44-1.25,3.76-2A23.57,23.57,0,0,0,399,122C400,121.13,400.56,120.37,400.56,119.7Z"/></g></g></svg>